<svg xmlns="http://www.w3.org/2000/svg" xmlns:xlink="http://www.w3.org/1999/xlink" viewBox="0 0 16 13.73"><defs><style>.cls-1{fill:#1a1a1a;}.cls-2{fill:url(#未命名的渐变);}.cls-3{fill:url(#未命名的渐变_3);}.cls-4{fill:url(#未命名的渐变_3-2);}.cls-5{fill:#b22222;}.cls-6{fill:#fff;}</style><linearGradient id="未命名的渐变" x1="-948.14" y1="546.37" x2="-948.16" y2="546.37" gradientTransform="matrix(320.88, 0, 0, -256.98, 304250.64, 140411.52)" gradientUnits="userSpaceOnUse"><stop offset="0" stop-color="#6d5656"/><stop offset="1"/></linearGradient><linearGradient id="未命名的渐变_3" x1="-949.2" y1="547.07" x2="-949.18" y2="547.08" gradientTransform="matrix(720.25, 0, 0, -569.24, 683662.68, 311425.64)" gradientUnits="userSpaceOnUse"><stop offset="0"/><stop offset="1" stop-color="#6d5656"/></linearGradient><linearGradient id="未命名的渐变_3-2" x1="-948.03" y1="546.44" x2="-948.01" y2="546.45" gradientTransform="matrix(345.79, 0, 0, -218.83, 327817.68, 119586.22)" xlink:href="#未命名的渐变_3"/></defs><g id="图层_2" data-name="图层 2"><g id="svg2"><path id="_02EEEB26" data-name="02EEEB26" class="cls-1" d="M14.85,5.35,16,5.68,14.93,6l.73.31-.77.14Z"/><path id="C5EEEB26" class="cls-2" d="M4.11,3.21C4,5.17,6.3,8.3,8.62,8.55c.9.1,2.23-.76,2.16-1.66C10.59,4.36,6.68,4.23,4.11,3.21Z"/><path id="F6EEEB26" class="cls-3" d="M0,10.45c2.53,2.82,7.1,4.1,10.42,2.73C13.19,12,15,8.36,15,5.44a3.67,3.67,0,0,0-5-3.33c-1.33.42-2.35,1.75-3.2,3C4.9,7.63,3.2,9.34,0,10.45Z"/><path id="_77EEEB26" data-name="77EEEB26" class="cls-4" d="M1.91,4.74c.16,2,3,4.67,5.3,4.55.91,0,2.08-1.11,1.87-2C8.48,4.83,4.6,5.33,1.91,4.74Z"/><path id="_08EEEB26" data-name="08EEEB26" class="cls-5" d="M8.33,3.2c.81.07,2.23.33,3.35.4.93.06,2,0,2.77,0a4.08,4.08,0,0,1,.44,2.83,8.19,8.19,0,0,1-4.14-.35A7.15,7.15,0,0,1,7.49,4.16,4.75,4.75,0,0,1,8.33,3.2Z"/><g id="_28EEEB26" data-name="28EEEB26"><g id="_48EEEB26" data-name="48EEEB26"><g id="_78EEEB26" data-name="78EEEB26"><path id="D8EEEB26" class="cls-6" d="M14.32,5.5a.91.91,0,0,1-1.25.36,1,1,0,0,1-.66-1.16.89.89,0,0,1,1.24-.35A1,1,0,0,1,14.32,5.5Z"/><path id="_29EEEB26" data-name="29EEEB26" class="cls-1" d="M14.26,5.45a.64.64,0,0,1-.88.29.7.7,0,0,1-.45-.85.65.65,0,0,1,.88-.29A.7.7,0,0,1,14.26,5.45Z"/><path id="_89EEEB26" data-name="89EEEB26" class="cls-6" d="M14.11,5.05a.22.22,0,0,1-.3.11.26.26,0,0,1-.15-.3.23.23,0,0,1,.3-.11A.24.24,0,0,1,14.11,5.05Z"/></g></g></g><path id="_4AEEEB26" data-name="4AEEEB26" class="cls-1" d="M14.26,4.91c-.2-.13-.37-.3-.57-.43a3.79,3.79,0,0,0-.62-.35L12.79,4c-.07,0,0,0,0-.06l.2-.22a1.69,1.69,0,0,1,.24.08,4,4,0,0,1,.64.36c.19.13.38.29.58.42s.06,0,0,.08Z"/><path id="_9AEEEB26" data-name="9AEEEB26" class="cls-5" d="M8.5,4.28c-.39,0-.84,0-1.14-.32a3.17,3.17,0,0,1-.61-1c0-.28,0-.63-.28-.76a2.37,2.37,0,0,0-1-.21,4,4,0,0,0-1.78.44.66.66,0,0,1-.8-.19,2.42,2.42,0,0,1-.35-.63c-.14-.14-.15-.36,0-.42L3,.9c.18.4.32.91.71,1.09s.77-.17,1.14-.28a3.09,3.09,0,0,1,1.65-.13.83.83,0,0,1,.79.58,1.64,1.64,0,0,0,.31,1c.2.36.49.71.87.72.13.05.55,0,.5.07Z"/><path id="DAEEEB26" class="cls-5" d="M8.24,4.1c-.28-.19-.63-.35-.75-.69a5,5,0,0,1-.2-.69c0-.32,0-.65,0-1A.35.35,0,0,0,7,1.32a5.71,5.71,0,0,0-.83-.11c-.26,0-.56,0-.76-.15A1.88,1.88,0,0,1,5.1.42c0-.12.14-.12.2-.19L5.67,0a2.1,2.1,0,0,0,.21.61c.11.21.37.22.58.22a5.54,5.54,0,0,1,1,.1c.2,0,.44.19.42.43A4.53,4.53,0,0,0,8,2.83a1.09,1.09,0,0,0,.33.58,3,3,0,0,0,.47.32c-.13.11-.29.2-.43.3Z"/><polygon id="_507C0036" data-name="507C0036" class="cls-6" points="11.77 4.79 11.33 4.94 11.18 5.38 11.03 4.94 10.59 4.79 11.03 4.64 11.18 4.2 11.33 4.64 11.77 4.79"/></g></g></svg>